<svg width="107" height="107" viewBox="0 0 107 107" fill="none" xmlns="http://www.w3.org/2000/svg">
<path d="M79.9054 15.7289C81.4123 14.2217 83.4569 13.375 85.588 13.375C87.7195 13.375 89.7641 14.2217 91.271 15.7289C92.7784 17.2361 93.625 19.2803 93.625 21.4118C93.625 23.5433 92.7784 25.5875 91.271 27.0947L55.2793 63.0863L40.125 66.875L43.9136 51.7207L79.9054 15.7289Z" stroke="#121212" stroke-width="5" stroke-linecap="round" stroke-linejoin="round"/>
<path d="M71.3333 26.75L80.25 35.6667" stroke="#121212" stroke-width="5" stroke-linecap="round" stroke-linejoin="round"/>
<path d="M55.7292 13.375H53.5C31.3396 13.375 13.375 31.3396 13.375 53.5C13.375 75.6606 31.3396 93.625 53.5 93.625C75.6606 93.625 93.625 75.6606 93.625 53.5V51.2708" stroke="#121212" stroke-width="5" stroke-linecap="round"/>
</svg>
