<svg width="24" height="24" viewBox="0 0 24 24" fill="none" xmlns="http://www.w3.org/2000/svg">
<g id="money-dollar-cash-payment-svgrepo-com 1" clip-path="url(#clip0_1_709)">
<g id="Group">
<path id="Vector" d="M22.5 8H22V7.5C22 6.7 21.3 6 20.5 6H20V5.5C20 4.7 19.3 4 18.5 4H1.5C0.7 4 0 4.7 0 5.5V15.5C0 16.3 0.7 17 1.5 17H2V17.5C2 18.3 2.7 19 3.5 19H4V19.5C4 20.3 4.7 21 5.5 21H22.5C23.3 21 24 20.3 24 19.5V9.5C24 8.7 23.3 8 22.5 8ZM1 15.5V5.5C1 5.2 1.2 5 1.5 5H18.5C18.8 5 19 5.2 19 5.5V15.5C19 15.8 18.8 16 18.5 16H1.5C1.2 16 1 15.8 1 15.5ZM3 17.5V17H18.5C19.3 17 20 16.3 20 15.5V7H20.5C20.8 7 21 7.2 21 7.5V17.5C21 17.8 20.8 18 20.5 18H3.5C3.2 18 3 17.8 3 17.5ZM23 19.5C23 19.8 22.8 20 22.5 20H5.5C5.2 20 5 19.8 5 19.5V19H20.5C21.3 19 22 18.3 22 17.5V9H22.5C22.8 9 23 9.2 23 9.5V19.5Z" fill="#A6A6A6"/>
<path id="Vector_2" d="M17.5 8C16.7 8 16 7.3 16 6.5C16 6.2 15.8 6 15.5 6H4.5C4.2 6 4 6.2 4 6.5C4 7.3 3.3 8 2.5 8C2.2 8 2 8.2 2 8.5V12.5C2 12.8 2.2 13 2.5 13C3.3 13 4 13.7 4 14.5C4 14.8 4.2 15 4.5 15H15.5C15.8 15 16 14.8 16 14.5C16 13.7 16.7 13 17.5 13C17.8 13 18 12.8 18 12.5V8.5C18 8.2 17.8 8 17.5 8ZM12 10.5C12 12.4 11.1 14 10 14C8.9 14 8 12.4 8 10.5C8 8.6 8.9 7 10 7C11.1 7 12 8.6 12 10.5ZM3 12.1V8.9C4 8.8 4.8 8 4.9 7H8.1C7.4 7.8 7 9.1 7 10.5C7 11.9 7.4 13.2 8.1 14H4.9C4.8 13 4 12.2 3 12.1ZM17 12.1C16 12.3 15.2 13.1 15 14H11.8C12.5 13.2 12.9 11.9 12.9 10.5C12.9 9.1 12.6 7.8 11.9 7H15C15.2 8 16 8.8 17 8.9V12.1Z" fill="#A6A6A6"/>
</g>
</g>
<defs>
<clipPath id="clip0_1_709">
<rect width="24" height="24" fill="white"/>
</clipPath>
</defs>
</svg>
