<svg width="107" height="107" viewBox="0 0 107 107" fill="none" xmlns="http://www.w3.org/2000/svg">
<path d="M91.3958 50.3792V31.3867C91.3958 13.4196 87.205 8.91667 70.3525 8.91667H36.6475C19.795 8.91667 15.6042 13.4196 15.6042 31.3867V81.5875C15.6042 93.4467 22.1134 96.2554 30.0046 87.7846L30.0491 87.74C33.705 83.8613 39.2779 84.1733 42.4433 88.4088L46.9463 94.4275" stroke="#121212" stroke-width="5" stroke-linecap="round" stroke-linejoin="round"/>
<path d="M35.6667 31.2083H71.3334" stroke="#121212" stroke-width="5" stroke-linecap="round" stroke-linejoin="round"/>
<path d="M40.125 49.0417H66.875" stroke="#121212" stroke-width="5" stroke-linecap="round" stroke-linejoin="round"/>
<path d="M81.1907 65.8509L65.4082 81.6334C64.7841 82.2576 64.2045 83.4167 64.0707 84.2638L63.2236 90.2826C62.9116 92.4672 64.4274 93.983 66.612 93.6709L72.6307 92.8238C73.4778 92.6901 74.6816 92.1105 75.2611 91.4863L91.0436 75.7038C93.7632 72.9843 95.0561 69.8188 91.0436 65.8063C87.0757 61.8384 83.9103 63.1313 81.1907 65.8509Z" stroke="#121212" stroke-width="5" stroke-miterlimit="10" stroke-linecap="round" stroke-linejoin="round"/>
<path d="M78.9089 68.1247C80.2464 72.9397 83.9914 76.6847 88.8064 78.0222" stroke="#121212" stroke-width="5" stroke-miterlimit="10" stroke-linecap="round" stroke-linejoin="round"/>
</svg>
